<?xml version="1.0" encoding="utf-8"?>
<!-- Generator: Adobe Illustrator 18.1.0, SVG Export Plug-In . SVG Version: 6.00 Build 0)  -->
<!DOCTYPE svg PUBLIC "-//W3C//DTD SVG 1.1//EN" "http://www.w3.org/Graphics/SVG/1.1/DTD/svg11.dtd">
<svg version="1.1" id="Layer_1" xmlns="http://www.w3.org/2000/svg" xmlns:xlink="http://www.w3.org/1999/xlink" x="0px" y="0px"
	 viewBox="0 0 60 60" enable-background="new 0 0 60 60" xml:space="preserve">
<g>
	<defs>
		<rect id="SVGID_1_" width="60" height="60"/>
	</defs>
	<clipPath id="SVGID_2_">
		<use xlink:href="#SVGID_1_"  overflow="visible"/>
	</clipPath>
	<path clip-path="url(#SVGID_2_)" fill="#2B2422" d="M30,0C13.4,0,0,13.4,0,30c0,16.5,13.4,30,30,30c16.5,0,30-13.4,30-30
		C59.9,13.4,46.5,0,30,0"/>
	<path clip-path="url(#SVGID_2_)" fill="#FFFFFF" d="M36.6,18.6c1.2-0.8,2.8-0.6,3.6,0.6l2.3,3.2c0.8,1.2,0.6,2.8-0.6,3.6l-10.5,7.5
		c-1.2,0.8-2.8,0.6-3.6-0.6l-2.5-3.5L21.5,32l2.5,3.5c2.3,3.2,6.8,4,10,1.7l10.5-7.5c3.2-2.3,4-6.8,1.7-10L44,16.5
		c-2.3-3.2-6.8-4-10-1.7l-6.1,4.3c0,0,2.7-0.2,5.1,2L36.6,18.6"/>
	<path clip-path="url(#SVGID_2_)" fill="#FFFFFF" d="M20.3,41.3c-1.2,0.8-2.8,0.6-3.6-0.6l-2.3-3.2c-0.8-1.2-0.6-2.8,0.6-3.6
		l10.5-7.5c1.2-0.8,2.8-0.6,3.6,0.6l2.5,3.5l3.7-2.6l-2.5-3.5c-2.3-3.2-6.8-4-10-1.7l-10.5,7.5c-3.2,2.3-4,6.8-1.7,10l2.3,3.2
		c2.3,3.2,6.8,4,10,1.7l6.1-4.3c0,0-2.7,0.2-5.1-2L20.3,41.3"/>
</g>
</svg>
